# xmcd
#
# Track frame offsets: 
#        150
#        16942
#        35030
#        48817
#        62298
#        80639
#        95465
#        114220
#        128406
#        145494
#        161886
#        174413
#        189352
#        201218
#        214453
#        231709
#        246557
#        257891
#        273943
#        289422
#        308091
#        321919
#
# Disc length: 4499 seconds
#
# Revision: 1
# Processed by: cddbd v1.5.2PL0 Copyright (c) Steve Scherf et al.
# Submitted via: ExactAudioCopy v1.3
#
DISCID=49119116
DTITLE=?? - ?????????
DYEAR=1900
DGENRE=
TTITLE0=????
TTITLE1=??????
TTITLE2=???????
TTITLE3=????
TTITLE4=????
TTITLE5=???
TTITLE6=???
TTITLE7=????
TTITLE8=??
TTITLE9=?????
TTITLE10=????
TTITLE11=????
TTITLE12=????
TTITLE13=?????
TTITLE14=?????
TTITLE15=???
TTITLE16=??
TTITLE17=???
TTITLE18=??
TTITLE19=????
TTITLE20=??
TTITLE21=???
EXTD=
EXTT0=
EXTT1=
EXTT2=
EXTT3=
EXTT4=
EXTT5=
EXTT6=
EXTT7=
EXTT8=
EXTT9=
EXTT10=
EXTT11=
EXTT12=
EXTT13=
EXTT14=
EXTT15=
EXTT16=
EXTT17=
EXTT18=
EXTT19=
EXTT20=
EXTT21=
PLAYORDER=
